<svg xmlns="http://www.w3.org/2000/svg" xmlns:xlink="http://www.w3.org/1999/xlink" viewBox="0 0 189.91 37.64"><defs><style>.cls-1{fill:url(#名称未設定グラデーション_78);}.cls-2{fill:#bf2f07;}.cls-3{fill:#052275;}.cls-4{fill:url(#名称未設定グラデーション_45);}</style><linearGradient id="名称未設定グラデーション_78" x1="33.82" y1="15.21" x2="21.82" y2="15.21" gradientUnits="userSpaceOnUse"><stop offset="0" stop-color="#0096df"/><stop offset="0.26" stop-color="#0080c2"/><stop offset="0.31" stop-color="#0377bb"/><stop offset="0.62" stop-color="#124b97"/><stop offset="0.86" stop-color="#1b3080"/><stop offset="1" stop-color="#1e2678"/></linearGradient><linearGradient id="名称未設定グラデーション_45" y1="19.11" x2="10.24" y2="19.11" gradientUnits="userSpaceOnUse"><stop offset="0" stop-color="#e98d00"/><stop offset="0.29" stop-color="#e77d09"/><stop offset="0.85" stop-color="#e15322"/><stop offset="1" stop-color="#df4729"/></linearGradient></defs><g id="レイヤー_2" data-name="レイヤー 2"><g id="ヘッダー"><path d="M54.27,29.2,58,10l6.14,13.91L70.54,10,73.92,29.2H71.15L69.43,18.4,64.13,30,59,18.39,57.06,29.2Z"/><path d="M88.7,24.85H81L79,29.2H76.13l8.86-19,8.54,19h-3Zm-1.1-2.54-2.66-6.08-2.78,6.08Z"/><path d="M102.43,21.57,108,29.2h-3.3l-5.11-7.33h-.49V29.2h-2.7V11.31c2.44,0,6.88-.17,8.28,1.33C107.76,15.12,106.49,20.92,102.43,21.57Zm-3.36-2.05c6.23.86,6.3-6.6,0-5.68Z"/><path d="M121.12,14l-2.19,1.3c-1.8-4.37-8.56.46-3.33,2.56,1.65.64,4.12,1.63,5,2.88,5.25,7.87-9.54,13.12-10.46,3.55l2.73-.6c.87,7.69,10.64.19,3.47-2.7C104.5,17.86,115.07,5.07,121.12,14Z"/><path d="M141.52,13.84h-6.23v4.3h6v2.54h-6V29.2h-2.7V11.31h8.93Z"/><path d="M147.83,11.31V26.66h5.26V29.2h-8V11.31Z"/><path d="M167.58,24.85h-7.66l-2,4.35H155l8.85-19,8.54,19h-2.95Zm-1.1-2.54-2.65-6.08-2.78,6.08Z"/><path d="M182.43,19.88h7.39c1.18,8.22-9.27,13-14.81,6.94-9-9,6.13-22.51,14-12.23l-1.92,1.84c-3.65-5.54-12.3-2.55-12,3.84-.48,7,10.7,9.53,11.84,2.15h-4.46Z"/><path class="cls-1" d="M22.72,16.14,32.12.5a1.11,1.11,0,0,1,1.7-.2v16c-.77-3-10.89,15.17-12,14.12V16.65A1,1,0,0,0,22.72,16.14Z"/><path class="cls-2" d="M20.92,16.14,11.52.5A1.11,1.11,0,0,0,9.82.3v16c.77-3,10.89,15.17,12,14.12V16.65A1,1,0,0,1,20.92,16.14Z"/><path class="cls-3" d="M33.81.58c0,10.39,0,26.06,0,36.4a.65.65,0,0,0,1,.54C47.58,29.4,47,8,33.81.58Z"/><path class="cls-4" d="M10.24.58C-2.92,8-3.53,29.4,9.2,37.52a.66.66,0,0,0,1-.54C10.23,28,10.24,9.4,10.24.58Z"/></g></g></svg>